{
  "asset": {
    "generator": "Khronos glTF Blender I/O v3.3.36",
    "version": "2.0",
    "extras": {
      "title": "A WebXR scene displaying a low poly 3D model of a blue planet with a cyan coloured ring around it."
    }
  },
  "scene": 0,
  "scenes": [
    {
      "name": "Scene",
      "nodes": [0, 1]
    }
  ],
  "nodes": [
    {
      "name": "Icosphere",
      "mesh": 0,
      "extras": {
        "accessibility": {
          "description": "A blue icosphere representing a planet."
        }
      }
    },
    {
      "name": "Torus",
      "mesh": 1,
      "rotation": [0, 0, 0.3826834559440613, 0.9238795638084412],
      "scale": [1.2000000476837158, 1, 1.2000000476837158],
      "extras": {
        "accessibility": {
          "description": "A cyan torus representing the planet's ring."
        }
      }
    }
  ],
  "materials": [
    {
      "name": "Material.001",
      "doubleSided": true,
      "pbrMetallicRoughness": {
        "baseColorFactor": [
          0.04666466638445854,
          0.004024442285299301,
          0.6938716173171997,
          1
        ],
        "metallicFactor": 0,
        "roughnessFactor": 0.5
      }
    },
    {
      "name": "Material.003",
      "doubleSided": true,
      "pbrMetallicRoughness": {
        "baseColorFactor": [
          0.08649937063455582,
          0.7011013627052307,
          0.8962693810462952,
          1
        ],
        "metallicFactor": 0,
        "roughnessFactor": 0.5
      }
    }
  ],
  "meshes": [
    {
      "name": "Icosphere",
      "primitives": [
        {
          "attributes": {
            "POSITION": 0,
            "NORMAL": 1,
            "TEXCOORD_0": 2
          },
          "indices": 3,
          "material": 0
        }
      ]
    },
    {
      "name": "Torus",
      "primitives": [
        {
          "attributes": {
            "POSITION": 4,
            "NORMAL": 5,
            "TEXCOORD_0": 6
          },
          "indices": 7,
          "material": 1
        }
      ]
    }
  ],
  "accessors": [
    {
      "bufferView": 0,
      "componentType": 5126,
      "count": 240,
      "max": [0.9510578513145447, 1, 0.9999999403953552],
      "min": [-0.9510578513145447, -1, -0.9999999403953552],
      "type": "VEC3"
    },
    {
      "bufferView": 1,
      "componentType": 5126,
      "count": 240,
      "type": "VEC3"
    },
    {
      "bufferView": 2,
      "componentType": 5126,
      "count": 240,
      "type": "VEC2"
    },
    {
      "bufferView": 3,
      "componentType": 5123,
      "count": 240,
      "type": "SCALAR"
    },
    {
      "bufferView": 4,
      "componentType": 5126,
      "count": 2304,
      "max": [1.25, 0.25, 1.25],
      "min": [-1.25, -0.25, -1.25],
      "type": "VEC3"
    },
    {
      "bufferView": 5,
      "componentType": 5126,
      "count": 2304,
      "type": "VEC3"
    },
    {
      "bufferView": 6,
      "componentType": 5126,
      "count": 2304,
      "type": "VEC2"
    },
    {
      "bufferView": 7,
      "componentType": 5123,
      "count": 3456,
      "type": "SCALAR"
    }
  ],
  "bufferViews": [
    {
      "buffer": 0,
      "byteLength": 2880,
      "byteOffset": 0,
      "target": 34962
    },
    {
      "buffer": 0,
      "byteLength": 2880,
      "byteOffset": 2880,
      "target": 34962
    },
    {
      "buffer": 0,
      "byteLength": 1920,
      "byteOffset": 5760,
      "target": 34962
    },
    {
      "buffer": 0,
      "byteLength": 480,
      "byteOffset": 7680,
      "target": 34963
    },
    {
      "buffer": 0,
      "byteLength": 27648,
      "byteOffset": 8160,
      "target": 34962
    },
    {
      "buffer": 0,
      "byteLength": 27648,
      "byteOffset": 35808,
      "target": 34962
    },
    {
      "buffer": 0,
      "byteLength": 18432,
      "byteOffset": 63456,
      "target": 34962
    },
    {
      "buffer": 0,
      "byteLength": 6912,
      "byteOffset": 81888,
      "target": 34963
    }
  ],
  "buffers": [
    {
      "byteLength": 88800,
      "uri": "myTwoModels_2.bin"
    }
  ]
}
